<?xml version="1.0" encoding="utf-8"?>
<!-- Generator: Adobe Illustrator 27.8.0, SVG Export Plug-In . SVG Version: 6.00 Build 0)  -->
<svg version="1.1" id="Layer_1" xmlns="http://www.w3.org/2000/svg" xmlns:xlink="http://www.w3.org/1999/xlink" x="0px" y="0px"
	 viewBox="0 0 1200 918" style="enable-background:new 0 0 1200 918;" xml:space="preserve">
<style type="text/css">
	.st0{fill:#FFEC00;}
</style>
<g transform="translate(0.000000,918.000000) scale(0.100000,-0.100000)">
	<path d="M164,9145C50,9077,3,8905,13,8596c8-231,35-327,111-394c44-38,106-56,169-48c125,14,182,102,203,308l6,66l-75,4
		c-86,3-87,3-87-82c0-101-37-162-87-144c-20,7-30,20-39,49c-31,107-24,548,10,629c12,28,21,36,40,36c41,0,59-39,64-136l5-84h78h79
		v68c0,82-23,174-55,223C384,9169,248,9196,164,9145z"/>
	<path d="M600,8660v-490h205h205v75v75H895H780v135v135h80h80v80v80h-80h-80v125v125h110h110v75v75H800H600V8660z"/>
	<path d="M1080,8660v-490h75h75l2,294l3,294l94-294l95-294h68h68v490v490h-70h-70l-2-257l-3-256l-80,254l-80,254l-88,3l-87,3V8660z"
		/>
	<path d="M1600,9075v-75h80h80v-415v-415h90h90v415v415h75h75v75v75h-245h-245V9075z"/>
	<path d="M2140,8661v-491h85h85v210v210h24c27,0,22,19,77-257l32-163h88c49,0,89,3,89,8c0,4-23,107-51,229l-52,223l36,39
		c92,102,89,332-5,417c-56,52-84,59-250,62l-158,4V8661z M2407,8986c27-23,28-29,28-109c0-77-3-88-24-111c-18-19-35-26-63-26h-38
		v135v135h34C2366,9010,2389,9001,2407,8986z"/>
	<path d="M2785,9128c-3-13-32-219-65-458c-34-239-63-450-66-467l-6-33h75h74l6,38c3,20,9,70,13,110l7,72h72h73l5-32c3-18,9-60,12-93
		c11-100,5-95,101-95h85l-6,33c-6,36-115,922-115,937c0,6-52,10-130,10C2794,9150,2790,9149,2785,9128z M2949,8568l1-38h-56
		c-55,0-56,0-50,28c3,15,15,110,26,212c12,102,24,192,27,200C2903,8985,2949,8636,2949,8568z"/>
	<path d="M3257,8668c-37-266-67-486-67-490c0-5,34-8,75-8c70,0,75,1,75,22c0,12,5,61,11,110l12,88h72h72l12-88c6-49,11-98,11-110
		c0-21,4-22,88-22h88l-61,490l-60,490h-130h-131L3257,8668z M3466,8773c13-114,24-216,24-225c0-15-9-18-56-18h-57l6,38
		c3,20,16,124,28,229c13,106,25,191,27,188C3440,8983,3453,8887,3466,8773z"/>
	<path d="M3770,8660v-490h205h205v75v75h-115h-115v415v415h-90h-90V8660z"/>
	<path d="M1425,7971c-84-39-128-122-128-242c0-128,49-208,204-335c110-90,146-176,99-237c-58-74-140-19-140,96v27h-75
		c-58,0-77-4-81-15c-10-26,23-162,50-202c41-61,97-88,181-87c51,0,81,6,112,22c141,74,175,279,72,436c-18,26-74,84-126,129
		c-109,94-136,132-136,193c0,52,24,84,62,84c47,0,71-34,71-99v-41h80h80v38c0,51-24,131-53,173C1646,7986,1519,8015,1425,7971z"/>
	<path d="M30,7485v-495h65h65l1,353l1,352l49-285c26-157,53-315,59-352l12-68h48c45,0,49,2,54,28c3,15,31,173,61,351s57,326,60,329
		s5-155,5-351v-357h80h80l-2,493l-3,492l-109,3c-60,1-113-1-117-5s-26-115-48-247c-22-131-42-240-44-242c-2-3-17,75-32,173
		s-33,210-39,248l-12,70l-117,3l-117,3V7485z"/>
	<path d="M770,7577c0-431,4-471,51-531c67-85,250-98,334-25c69,61,70,66,73,537l3,422h-75h-75l-3-411l-3-411l-24-20
		c-25-19-64-18-86,3c-6,6-12,167-15,422l-5,412l-87,3l-88,3V7577z"/>
	<path d="M1857,7974c-4-4-7-227-7-496v-488h210h210v75v75h-120h-120v135v135h85h85v80v80h-85h-85v125v124l113,3l112,3v75v75l-196,3
		C1952,7979,1861,7977,1857,7974z"/>
	<path d="M2334,7966c-3-7-4-195-2-417l3-404l26-56c21-44,37-63,70-82c91-53,219-44,290,20c67,60,69,80,69,545v408h-75h-75v-405v-406
		l-25-24c-13-14-31-25-40-25s-27,11-40,25l-25,24v406v405h-85C2361,7980,2338,7976,2334,7966z"/>
	<path d="M2900,7485v-495h65h65l1,353l1,352l49-285c26-157,53-315,59-352l12-68h48c45,0,49,2,54,28c3,15,30,173,61,351
		c30,178,57,326,60,329s5-155,5-351v-357h80h80l-2,493l-3,492l-109,3c-60,1-113-1-117-5s-26-115-48-247c-22-131-42-240-44-242
		c-2-3-19,89-37,203c-18,115-35,226-39,248l-7,40l-117,3l-117,3V7485z"/>
	<path d="M1098,6780c-40-31-60-94-66-205c-6-134,10-209,53-252c36-36,73-42,119-21c38,17,57,54,63,119l6,59h-35c-34,0-35-1-44-52
		c-8-47-12-53-34-53c-21,0-26,6-32,40c-17,98-4,283,21,308c18,18,41-19,41-64c0-44,4-48,48-42c28,5,32,9,32,37c0,52-19,104-47,126
		C1190,6806,1131,6806,1098,6780z"/>
	<path d="M0,6588c0-222,8-258,60-286c39-20,107-9,139,22l26,26l3,220l3,220h-35h-36v-184c0-202-7-239-43-234c-22,3-22,4-25,211
		l-2,207H45H0V6588z"/>
	<path d="M250,6756c0-33,2-35,38-38l37-3l3-207l2-208h45h45v210v210h35c33,0,35,2,35,35v35H370H250V6756z"/>
	<path d="M520,6545v-245h45h45v105c0,58,4,105,9,105c9,0,13-16,41-152l11-58h45c38,0,45,3,40,18c-2,9-14,60-26,114l-22,96l22,30
		c31,41,38,118,15,165c-23,48-66,67-154,67h-71V6545z M660,6701c23-44,0-121-36-121c-11,0-14,16-14,70c0,63,2,70,20,70
		C640,6720,654,6711,660,6701z"/>
	<path d="M800,6545v-245h105h105v35v35h-60h-60v70v70h40h40v40v40h-40h-40v65v65h55h55v35v35H900H800V6545z"/>
	<path d="M1320,6545v-245h45h45v105v105h30h30v-105v-105h45h45v245v245h-45h-45v-101v-100l-27,3l-28,3l-3,98l-3,97h-44h-45V6545z"/>
	<path d="M1580,6755c0-34,1-35,40-35h40v-210v-210h45h45v210v210h40c39,0,40,1,40,35v35h-125h-125V6755z"/>
	<path d="M2244,6629c-14-28-24-52-22-54c7-6,3553-1885,3558-1885c10,0,60,104,52,111c-15,13-3541,1879-3551,1879
		C2275,6680,2259,6657,2244,6629z"/>
</g>
<circle class="st0" cx="885.5" cy="603.5" r="314.5"/>
</svg>
